<svg width="170" height="51" viewBox="0 0 170 51" fill="none" xmlns="http://www.w3.org/2000/svg">
<g clip-path="url(#clip0_31_624)">
<path d="M155.043 24.4459H149.06C145.208 24.4459 143.145 27.3302 143.145 32.1368V49.5122H131.797V24.4442H126.982C123.131 24.4442 121.069 27.3284 121.069 32.135V49.5105H109.72V15.1743H121.069V20.3939C122.927 16.342 125.471 15.1743 129.255 15.1743H143.146V20.3939C145.004 16.342 147.549 15.1743 151.332 15.1743H155.044L155.043 24.4459ZM107.243 35.0211H83.5853C84.204 38.8674 86.6108 41.065 90.668 41.065C93.6934 41.065 95.8266 39.8276 96.515 37.6317L106.555 40.4463C104.08 46.4205 97.958 50.0612 90.668 50.0612C78.357 50.0612 72.7174 40.5143 72.7174 32.3442C72.7174 24.31 77.6686 14.6951 89.9796 14.6951C103.047 14.6951 107.379 24.4459 107.379 31.6575C107.388 32.7802 107.343 33.9027 107.243 35.0211ZM96.2396 28.3602C95.9643 25.4062 93.8311 22.6613 89.9813 22.6613C86.4034 22.6613 84.2737 24.2385 83.5853 28.3602H96.2396ZM52.9125 49.5105H62.8829L75.3316 15.1778H63.9164L57.8637 35.1587L51.6734 15.1761H40.3245L52.9125 49.5105ZM6.42052 49.5105H17.6998V24.4459H28.4318V49.5122H39.6413V15.1761H17.6998V13.0482C17.6998 10.7128 19.3502 9.27156 21.9643 9.27156H28.43V0H20.1083C11.9225 0 6.42052 5.01396 6.42052 12.3598V15.1761H0.0245361V24.4476H6.42052V49.5105Z" fill="#1B1D21"/>
<path d="M162.059 50.5404C165.933 50.5404 169.074 47.4034 169.074 43.5345C169.074 39.6655 165.933 36.5303 162.059 36.5303C158.185 36.5303 155.043 39.6673 155.043 43.5362C155.043 47.4052 158.185 50.5404 162.059 50.5404Z" fill="#F85F5F"/>
</g>
<defs>
<clipPath id="clip0_31_624">
<rect width="169.098" height="51" fill="white"/>
</clipPath>
</defs>
</svg>
