<svg width="191" height="57" viewBox="0 0 191 57" fill="none" xmlns="http://www.w3.org/2000/svg">
<g clip-path="url(#clip0_31_621)">
<path d="M52.2056 35.9987C49.1057 35.9987 46.2009 34.6862 43.5618 32.5496L44.2044 29.5335L44.2323 29.4217C44.8046 26.2103 46.62 20.8199 52.2056 20.8199C56.3946 20.8199 59.8019 24.2272 59.8019 28.4162C59.7878 32.5913 56.3808 35.9987 52.2056 35.9987ZM52.2056 13.126C45.0698 13.126 39.5405 17.762 37.2925 25.3862C33.8572 20.2335 31.2598 14.0477 29.738 8.83911H22.0579V28.8211C22.0579 32.759 18.8461 35.9704 14.9083 35.9704C10.9704 35.9704 7.75905 32.759 7.75905 28.8211V8.83911H0.0782126V28.8211C0.0502714 37.0042 6.71107 43.7205 14.8937 43.7205C23.0768 43.7205 29.7376 37.0042 29.7376 28.8211V25.4701C31.2315 28.5838 33.0607 31.7255 35.2811 34.5185L30.5751 56.6368H38.437L41.8439 40.5926C44.8321 42.5056 48.2674 43.7067 52.2053 43.7067C60.6252 43.7067 67.4816 36.8086 67.4816 28.3882C67.4816 19.982 60.6256 13.126 52.2056 13.126Z" fill="#F85F5F"/>
<path d="M90.927 13.9918L95.8841 33.9739L101.344 13.9918H107.851L99.4591 42.8689H92.9518L87.7994 22.7609L82.6605 42.8547H76.1535L67.7607 13.9781H74.2681L79.7278 33.9601L84.6849 13.9781H90.9266V13.9922L90.927 13.9918ZM123.421 13.126C114.973 13.126 108.131 19.9821 108.131 28.4162C108.131 36.8645 114.987 43.7067 123.421 43.7067C131.869 43.7067 138.725 36.8645 138.725 28.4162C138.725 19.9683 131.869 13.126 123.421 13.126ZM123.421 37.4229C118.45 37.4229 114.428 33.4013 114.428 28.4304C114.428 23.4591 118.464 19.4378 123.421 19.4378C128.392 19.4378 132.413 23.4591 132.413 28.4304C132.413 33.3875 128.392 37.4229 123.421 37.4229ZM157.311 20.4571C152.94 20.4571 149.407 24.0037 149.407 28.3603V42.8547H142.858V13.9918H149.407V18.4323C149.407 18.4323 152.2 13.9777 157.939 13.9777H159.95V20.4571H157.311ZM179.29 27.2993C183.939 24.6739 187.096 19.6889 187.096 13.9777H180.546C180.546 18.7951 176.637 22.705 171.819 22.705H170.939V0.0559082H164.391V42.8543H170.939V29.2541H171.722C172.364 29.2541 173.202 29.6732 173.579 30.1895L182.878 42.8547H190.726L179.29 27.2993Z" fill="#1B1D21"/>
</g>
<defs>
<clipPath id="clip0_31_621">
<rect width="190.763" height="57" fill="white"/>
</clipPath>
</defs>
</svg>
