<svg width="54" height="54" viewBox="0 0 54 54" fill="none" xmlns="http://www.w3.org/2000/svg">
<rect width="54" height="54" fill="#1B1D21"/>
<path d="M9.292 40C9.04533 40 8.848 39.926 8.7 39.778C8.552 39.63 8.478 39.4327 8.478 39.186V14.914C8.478 14.6673 8.552 14.47 8.7 14.322C8.848 14.174 9.04533 14.1 9.292 14.1H9.995C10.2417 14.1 10.439 14.174 10.587 14.322C10.735 14.47 10.809 14.6673 10.809 14.914V37.78H23.574C23.8453 37.78 24.055 37.854 24.203 38.002C24.351 38.15 24.425 38.3597 24.425 38.631V39.186C24.425 39.4327 24.351 39.63 24.203 39.778C24.055 39.926 23.8453 40 23.574 40H9.292Z" fill="white"/>
<path d="M36.8145 40.37C34.6685 40.37 32.8678 40.0493 31.4125 39.408C29.9572 38.742 28.8348 37.891 28.0455 36.855C27.2808 35.7943 26.8738 34.672 26.8245 33.488C26.8245 33.2907 26.8985 33.118 27.0465 32.97C27.2192 32.7973 27.4165 32.711 27.6385 32.711H29.5255C29.8215 32.711 30.0435 32.785 30.1915 32.933C30.3395 33.081 30.4382 33.2537 30.4875 33.451C30.6108 34.043 30.9068 34.635 31.3755 35.227C31.8688 35.7943 32.5472 36.2753 33.4105 36.67C34.2985 37.04 35.4332 37.225 36.8145 37.225C38.9358 37.225 40.4898 36.855 41.4765 36.115C42.4878 35.3503 42.9935 34.339 42.9935 33.081C42.9935 32.2177 42.7222 31.527 42.1795 31.009C41.6615 30.4663 40.8598 29.9853 39.7745 29.566C38.6892 29.1467 37.2832 28.6903 35.5565 28.197C33.7558 27.679 32.2635 27.1117 31.0795 26.495C29.8955 25.8783 29.0075 25.1137 28.4155 24.201C27.8482 23.2883 27.5645 22.129 27.5645 20.723C27.5645 19.391 27.9222 18.207 28.6375 17.171C29.3528 16.1103 30.3765 15.2717 31.7085 14.655C33.0652 14.0383 34.7055 13.73 36.6295 13.73C38.1588 13.73 39.4908 13.9397 40.6255 14.359C41.7848 14.7537 42.7468 15.2963 43.5115 15.987C44.2762 16.653 44.8558 17.3807 45.2505 18.17C45.6452 18.9347 45.8548 19.687 45.8795 20.427C45.8795 20.5997 45.8178 20.7723 45.6945 20.945C45.5712 21.093 45.3738 21.167 45.1025 21.167H43.1415C42.9688 21.167 42.7838 21.1177 42.5865 21.019C42.4138 20.9203 42.2782 20.7353 42.1795 20.464C42.0315 19.4527 41.4642 18.6017 40.4775 17.911C39.4908 17.2203 38.2082 16.875 36.6295 16.875C35.0262 16.875 33.7188 17.1833 32.7075 17.8C31.7208 18.4167 31.2275 19.3787 31.2275 20.686C31.2275 21.5247 31.4618 22.2277 31.9305 22.795C32.3992 23.3377 33.1392 23.8187 34.1505 24.238C35.1618 24.6573 36.4815 25.1013 38.1095 25.57C40.0828 26.1127 41.6985 26.6923 42.9565 27.309C44.2145 27.901 45.1395 28.6533 45.7315 29.566C46.3482 30.454 46.6565 31.601 46.6565 33.007C46.6565 34.561 46.2495 35.893 45.4355 37.003C44.6215 38.0883 43.4745 38.927 41.9945 39.519C40.5392 40.0863 38.8125 40.37 36.8145 40.37Z" fill="#F85F5F"/>
</svg>
