<svg width="57" height="57" viewBox="0 0 57 57" fill="none" xmlns="http://www.w3.org/2000/svg">
<rect width="57" height="57" fill="#1B1D21"/>
<path d="M10.292 43C10.0453 43 9.848 42.926 9.7 42.778C9.552 42.63 9.478 42.4327 9.478 42.186V17.951C9.478 17.6797 9.552 17.47 9.7 17.322C9.848 17.174 10.0453 17.1 10.292 17.1H19.283C21.0097 17.1 22.502 17.396 23.76 17.988C25.0427 18.5553 26.0293 19.4063 26.72 20.541C27.4353 21.6757 27.793 23.0817 27.793 24.759C27.793 26.4363 27.4353 27.8423 26.72 28.977C26.0293 30.1117 25.0427 30.975 23.76 31.567C22.502 32.1343 21.0097 32.418 19.283 32.418H11.809V42.186C11.809 42.4327 11.735 42.63 11.587 42.778C11.439 42.926 11.2293 43 10.958 43H10.292ZM11.809 30.198H19.098C21.244 30.198 22.835 29.7293 23.871 28.792C24.9317 27.8547 25.462 26.5103 25.462 24.759C25.462 23.0077 24.9317 21.6633 23.871 20.726C22.835 19.7887 21.244 19.32 19.098 19.32H11.809V30.198Z" fill="white"/>
<path d="M33.3034 43C33.0321 43 32.8224 42.926 32.6744 42.778C32.5264 42.6053 32.4524 42.3957 32.4524 42.149V17.988C32.4524 17.7167 32.5264 17.507 32.6744 17.359C32.8224 17.1863 33.0321 17.1 33.3034 17.1H48.3994C48.6707 17.1 48.8804 17.1863 49.0284 17.359C49.1764 17.507 49.2504 17.7167 49.2504 17.988V19.468C49.2504 19.7393 49.1764 19.949 49.0284 20.097C48.8804 20.245 48.6707 20.319 48.3994 20.319H36.0414V28.94H47.6594C47.9307 28.94 48.1404 29.0263 48.2884 29.199C48.4364 29.347 48.5104 29.5567 48.5104 29.828V31.308C48.5104 31.5547 48.4364 31.7643 48.2884 31.937C48.1404 32.085 47.9307 32.159 47.6594 32.159H36.0414V42.149C36.0414 42.3957 35.9551 42.6053 35.7824 42.778C35.6344 42.926 35.4247 43 35.1534 43H33.3034Z" fill="#F85F5F"/>
</svg>
